<svg xmlns="http://www.w3.org/2000/svg" viewBox="295 175 665 865">
  <defs>
    <linearGradient id="flame" x1="0" y1="196" x2="0" y2="1017" gradientUnits="userSpaceOnUse">
      <stop offset="0%" stop-color="#bd72fb"/>
      <stop offset="48%" stop-color="#9a52f9"/>
      <stop offset="100%" stop-color="#6c2bf3"/>
    </linearGradient>
  </defs>
  <path d="M 627.00,190.00 C 638.70,265.60 687.32,334.00 733.00,400.00 C 765.80,447.38 771.00,502.00 765.00,566.50 C 819.00,518.00 829.00,473.00 805.00,398.00 C 840.00,436.00 873.26,465.84 897.00,513.00 C 927.79,574.17 947.10,635.01 943.70,700.30 C 937.20,825.01 874.73,932.39 771.00,986.00 C 727.30,1008.59 689.00,1015.00 659.00,1019.00 C 705.00,993.00 763.06,940.89 768.00,852.00 C 770.51,806.89 758.97,777.81 748.00,756.00 C 742.31,744.70 738.00,738.00 733.00,729.00 C 728.00,752.00 711.29,779.84 692.00,792.00 C 688.22,794.38 655.41,810.78 650.00,808.00 C 644.97,805.41 639.87,794.98 664.00,750.00 C 679.27,721.53 694.50,668.79 675.00,630.00 C 669.57,619.20 655.00,582.00 620.50,558.50 C 626.50,627.00 564.44,680.24 519.00,738.00 C 482.50,784.40 486.75,814.00 487.00,862.00 C 487.34,927.50 540.00,986.00 595.00,1019.00 C 565.00,1015.00 526.70,1008.59 483.00,986.00 C 379.27,932.39 316.80,825.01 310.30,700.30 C 306.90,635.01 326.21,574.17 357.00,513.00 C 380.74,465.84 414.00,436.00 449.00,398.00 C 425.00,473.00 435.00,518.00 489.00,566.50 C 483.00,502.00 488.20,447.38 521.00,400.00 C 566.68,334.00 615.30,265.60 627.00,190.00 Z" fill="url(#flame)"/>
</svg>
